<svg width="210.86749267578125px" height="73.6349609375px" xmlns="http://www.w3.org/2000/svg" viewBox="144.56625366210938 38.18251953125 210.86749267578125 73.6349609375" style="background: rgba(0, 0, 0, 0);" preserveAspectRatio="xMidYMid"><defs><filter id="editing-hole" x="-100%" y="-100%" width="300%" height="300%"><feFlood flood-color="#000000" result="black"></feFlood><feMorphology operator="dilate" radius="2" in="SourceGraphic" result="erode"></feMorphology><feGaussianBlur in="erode" stdDeviation="4" result="blur"></feGaussianBlur><feOffset in="blur" dx="2" dy="2" result="offset"></feOffset><feComposite operator="atop" in="offset" in2="black" result="merge"></feComposite><feComposite operator="in" in="merge" in2="SourceGraphic" result="inner-shadow"></feComposite></filter></defs><g filter="url(#editing-hole)"><g transform="translate(180.43813171237707, 86.94999980926514)"><path d="M19.87-22.40L22.27-22.40L12.35 0L10.02 0L0.10-22.40L2.66-22.40L11.23-2.94L19.87-22.40ZM31.39-16.96L31.39-16.96Q34.69-16.96 36.45-15.31L36.45-15.31L36.45-15.31Q38.21-13.66 38.21-10.43L38.21-10.43L38.21 0L36.03 0L36.03-2.62L36.03-2.62Q35.26-1.31 33.78-0.58L33.78-0.58L33.78-0.58Q32.29 0.16 30.24 0.16L30.24 0.16L30.24 0.16Q27.42 0.16 25.76-1.18L25.76-1.18L25.76-1.18Q24.10-2.53 24.10-4.74L24.10-4.74L24.10-4.74Q24.10-6.88 25.65-8.19L25.65-8.19L25.65-8.19Q27.20-9.50 30.59-9.50L30.59-9.50L35.94-9.50L35.94-10.53L35.94-10.53Q35.94-12.70 34.72-13.84L34.72-13.84L34.72-13.84Q33.50-14.98 31.17-14.98L31.17-14.98L31.17-14.98Q29.57-14.98 28.10-14.45L28.10-14.45L28.10-14.45Q26.62-13.92 25.57-12.99L25.57-12.99L24.54-14.69L24.54-14.69Q25.82-15.78 27.62-16.37L27.62-16.37L27.62-16.37Q29.41-16.96 31.39-16.96L31.39-16.96ZM30.59-1.63L30.59-1.63Q32.51-1.63 33.89-2.51L33.89-2.51L33.89-2.51Q35.26-3.39 35.94-5.06L35.94-5.06L35.94-7.81L30.66-7.81L30.66-7.81Q26.34-7.81 26.34-4.80L26.34-4.80L26.34-4.80Q26.34-3.33 27.46-2.48L27.46-2.48L27.46-2.48Q28.58-1.63 30.59-1.63L30.59-1.63ZM51.36 0.16L51.36 0.16Q48.86 0.16 46.90-0.93L46.90-0.93L46.90-0.93Q44.93-2.02 43.81-3.98L43.81-3.98L43.81-3.98Q42.69-5.95 42.69-8.42L42.69-8.42L42.69-8.42Q42.69-10.88 43.81-12.83L43.81-12.83L43.81-12.83Q44.93-14.78 46.90-15.87L46.90-15.87L46.90-15.87Q48.86-16.96 51.36-16.96L51.36-16.96L51.36-16.96Q53.54-16.96 55.25-16.11L55.25-16.11L55.25-16.11Q56.96-15.26 57.95-13.63L57.95-13.63L56.26-12.48L56.26-12.48Q55.42-13.73 54.14-14.35L54.14-14.35L54.14-14.35Q52.86-14.98 51.36-14.98L51.36-14.98L51.36-14.98Q49.54-14.98 48.08-14.16L48.08-14.16L48.08-14.16Q46.62-13.34 45.81-11.84L45.81-11.84L45.81-11.84Q44.99-10.34 44.99-8.42L44.99-8.42L44.99-8.42Q44.99-6.46 45.81-4.98L45.81-4.98L45.81-4.98Q46.62-3.49 48.08-2.67L48.08-2.67L48.08-2.67Q49.54-1.86 51.36-1.86L51.36-1.86L51.36-1.86Q52.86-1.86 54.14-2.46L54.14-2.46L54.14-2.46Q55.42-3.07 56.26-4.32L56.26-4.32L57.95-3.17L57.95-3.17Q56.96-1.54 55.23-0.69L55.23-0.69L55.23-0.69Q53.50 0.16 51.36 0.16L51.36 0.16ZM68.29-16.96L68.29-16.96Q71.58-16.96 73.34-15.31L73.34-15.31L73.34-15.31Q75.10-13.66 75.10-10.43L75.10-10.43L75.10 0L72.93 0L72.93-2.62L72.93-2.62Q72.16-1.31 70.67-0.58L70.67-0.58L70.67-0.58Q69.18 0.16 67.14 0.16L67.14 0.16L67.14 0.16Q64.32 0.16 62.66-1.18L62.66-1.18L62.66-1.18Q60.99-2.53 60.99-4.74L60.99-4.74L60.99-4.74Q60.99-6.88 62.54-8.19L62.54-8.19L62.54-8.19Q64.10-9.50 67.49-9.50L67.49-9.50L72.83-9.50L72.83-10.53L72.83-10.53Q72.83-12.70 71.62-13.84L71.62-13.84L71.62-13.84Q70.40-14.98 68.06-14.98L68.06-14.98L68.06-14.98Q66.46-14.98 64.99-14.45L64.99-14.45L64.99-14.45Q63.52-13.92 62.46-12.99L62.46-12.99L61.44-14.69L61.44-14.69Q62.72-15.78 64.51-16.37L64.51-16.37L64.51-16.37Q66.30-16.96 68.29-16.96L68.29-16.96ZM67.49-1.63L67.49-1.63Q69.41-1.63 70.78-2.51L70.78-2.51L70.78-2.51Q72.16-3.39 72.83-5.06L72.83-5.06L72.83-7.81L67.55-7.81L67.55-7.81Q63.23-7.81 63.23-4.80L63.23-4.80L63.23-4.80Q63.23-3.33 64.35-2.48L64.35-2.48L64.35-2.48Q65.47-1.63 67.49-1.63L67.49-1.63ZM89.34-2.66L90.14-1.02L90.14-1.02Q89.50-0.45 88.56-0.14L88.56-0.14L88.56-0.14Q87.62 0.16 86.59 0.16L86.59 0.16L86.59 0.16Q84.22 0.16 82.94-1.12L82.94-1.12L82.94-1.12Q81.66-2.40 81.66-4.74L81.66-4.74L81.66-14.91L78.66-14.91L78.66-16.83L81.66-16.83L81.66-20.51L83.94-20.51L83.94-16.83L89.06-16.83L89.06-14.91L83.94-14.91L83.94-4.86L83.94-4.86Q83.94-3.36 84.69-2.58L84.69-2.58L84.69-2.58Q85.44-1.79 86.85-1.79L86.85-1.79L86.85-1.79Q87.55-1.79 88.21-2.02L88.21-2.02L88.21-2.02Q88.86-2.24 89.34-2.66L89.34-2.66ZM94.27 0L94.27-16.83L96.54-16.83L96.54 0L94.27 0ZM95.42-20.51L95.42-20.51Q94.72-20.51 94.24-20.99L94.24-20.99L94.24-20.99Q93.76-21.47 93.76-22.14L93.76-22.14L93.76-22.14Q93.76-22.78 94.24-23.26L94.24-23.26L94.24-23.26Q94.72-23.74 95.42-23.74L95.42-23.74L95.42-23.74Q96.13-23.74 96.61-23.28L96.61-23.28L96.61-23.28Q97.09-22.82 97.09-22.18L97.09-22.18L97.09-22.18Q97.09-21.47 96.61-20.99L96.61-20.99L96.61-20.99Q96.13-20.51 95.42-20.51L95.42-20.51ZM109.76 0.16L109.76 0.16Q107.33 0.16 105.38-0.94L105.38-0.94L105.38-0.94Q103.42-2.05 102.30-4L102.30-4L102.30-4Q101.18-5.95 101.18-8.42L101.18-8.42L101.18-8.42Q101.18-10.88 102.30-12.83L102.30-12.83L102.30-12.83Q103.42-14.78 105.38-15.87L105.38-15.87L105.38-15.87Q107.33-16.96 109.76-16.96L109.76-16.96L109.76-16.96Q112.19-16.96 114.14-15.87L114.14-15.87L114.14-15.87Q116.10-14.78 117.20-12.83L117.20-12.83L117.20-12.83Q118.30-10.88 118.30-8.42L118.30-8.42L118.30-8.42Q118.30-5.95 117.20-4L117.20-4L117.20-4Q116.10-2.05 114.14-0.94L114.14-0.94L114.14-0.94Q112.19 0.16 109.76 0.16L109.76 0.16ZM109.76-1.86L109.76-1.86Q111.55-1.86 112.98-2.67L112.98-2.67L112.98-2.67Q114.40-3.49 115.20-4.99L115.20-4.99L115.20-4.99Q116-6.50 116-8.42L116-8.42L116-8.42Q116-10.34 115.20-11.84L115.20-11.84L115.20-11.84Q114.40-13.34 112.98-14.16L112.98-14.16L112.98-14.16Q111.55-14.98 109.76-14.98L109.76-14.98L109.76-14.98Q107.97-14.98 106.54-14.16L106.54-14.16L106.54-14.16Q105.12-13.34 104.30-11.84L104.30-11.84L104.30-11.84Q103.49-10.34 103.49-8.42L103.49-8.42L103.49-8.42Q103.49-6.50 104.30-4.99L104.30-4.99L104.30-4.99Q105.12-3.49 106.54-2.67L106.54-2.67L106.54-2.67Q107.97-1.86 109.76-1.86L109.76-1.86ZM131.52-16.96L131.52-16.96Q134.69-16.96 136.56-15.12L136.56-15.12L136.56-15.12Q138.43-13.28 138.43-9.76L138.43-9.76L138.43 0L136.16 0L136.16-9.54L136.16-9.54Q136.16-12.16 134.85-13.54L134.85-13.54L134.85-13.54Q133.54-14.91 131.10-14.91L131.10-14.91L131.10-14.91Q128.38-14.91 126.80-13.30L126.80-13.30L126.80-13.30Q125.22-11.68 125.22-8.83L125.22-8.83L125.22 0L122.94 0L122.94-16.83L125.12-16.83L125.12-13.73L125.12-13.73Q126.05-15.26 127.70-16.11L127.70-16.11L127.70-16.11Q129.34-16.96 131.52-16.96L131.52-16.96Z" fill="#cccccc"></path></g></g><style>text {
  font-size: 64px;
  font-family: Arial Black;
  dominant-baseline: central;
  text-anchor: middle;
}</style></svg>